<?xml version="1.0" ?><svg id="art" viewBox="0 0 64 64" xmlns="http://www.w3.org/2000/svg"><defs><style>.cls-1{fill:#456a82;}.cls-2{fill:#59839b;}.cls-3{fill:#385272;}.cls-4{fill:#041256;}.cls-5{fill:#6394c1;}.cls-6{fill:#99cddd;}.cls-7{fill:#c7e8ef;}.cls-8{fill:#84bad8;}.cls-9{fill:#5df9e6;}.cls-10{fill:#3351d1;}.cls-11{fill:#2b35b2;}.cls-12{fill:#6887ea;}</style></defs><title/><path class="cls-1" d="M42.16,40.38l-1.11-2.44-2.43,2.44L32,38.68l-6.62,1.7L23,37.94l-1.11,2.44a2.34,2.34,0,0,1-1.55,1.31L8,44.84V56H56V44.84L43.71,41.69A2.34,2.34,0,0,1,42.16,40.38Z"/><path class="cls-2" d="M43.71,41.69a2.34,2.34,0,0,1-1.55-1.31l-1.11-2.44-2.43,2.44L32,38.68l-6.62,1.7L23,37.94l-1.11,2.44a2.34,2.34,0,0,1-1.55,1.31L8,44.84V46.9l12.29-3.15a2.35,2.35,0,0,0,1.55-1.3L23,40l2.43,2.43L32,40.75l6.62,1.69L41.05,40l1.11,2.44a2.35,2.35,0,0,0,1.55,1.3L56,46.9V44.84Z"/><polygon class="cls-3" points="52.74 52.82 51.49 52.5 51.49 53.38 52.74 53.7 52.74 52.82"/><polygon class="cls-3" points="50.49 52.24 49.24 51.92 49.24 52.8 50.49 53.12 50.49 52.24"/><polygon class="cls-3" points="14.76 51.92 13.51 52.24 13.51 53.12 14.76 52.8 14.76 51.92"/><polygon class="cls-3" points="11.26 53.7 12.51 53.38 12.51 52.5 11.26 52.82 11.26 53.7"/><polygon class="cls-3" points="48.24 51.66 46.99 51.34 46.99 52.22 48.24 52.54 48.24 51.66"/><polygon class="cls-3" points="39.24 49.35 37.99 49.03 37.99 49.91 39.24 50.23 39.24 49.35"/><polygon class="cls-3" points="45.99 51.09 44.74 50.77 44.74 51.64 45.99 51.96 45.99 51.09"/><polygon class="cls-3" points="41.49 49.93 40.24 49.61 40.24 50.49 41.49 50.81 41.49 49.93"/><polygon class="cls-3" points="43.74 50.51 42.49 50.19 42.49 51.07 43.74 51.39 43.74 50.51"/><polygon class="cls-3" points="35.74 49.33 36.99 49.66 36.99 48.78 35.74 48.46 35.74 49.33"/><polygon class="cls-3" points="17.01 51.34 15.76 51.66 15.76 52.54 17.01 52.22 17.01 51.34"/><polygon class="cls-3" points="10.26 53.08 8 53.66 8 54.53 10.26 53.95 10.26 53.08"/><polygon class="cls-3" points="34.74 48.2 32 47.5 29.26 48.2 29.26 49.08 32 48.37 34.74 49.08 34.74 48.2"/><polygon class="cls-3" points="53.74 53.08 53.74 53.95 56 54.53 56 53.66 53.74 53.08"/><polygon class="cls-3" points="28.26 48.46 27.01 48.78 27.01 49.66 28.26 49.33 28.26 48.46"/><polygon class="cls-3" points="26.01 49.03 24.76 49.35 24.76 50.23 26.01 49.91 26.01 49.03"/><polygon class="cls-3" points="19.26 50.77 18.01 51.09 18.01 51.96 19.26 51.64 19.26 50.77"/><polygon class="cls-3" points="21.51 50.19 20.26 50.51 20.26 51.39 21.51 51.07 21.51 50.19"/><polygon class="cls-3" points="23.76 49.61 22.51 49.93 22.51 50.81 23.76 50.49 23.76 49.61"/><polygon class="cls-3" points="52.74 50.88 51.49 50.56 51.49 51.44 52.74 51.76 52.74 50.88"/><polygon class="cls-3" points="50.49 50.3 49.24 49.98 49.24 50.86 50.49 51.18 50.49 50.3"/><polygon class="cls-3" points="14.76 49.98 13.51 50.3 13.51 51.18 14.76 50.86 14.76 49.98"/><polygon class="cls-3" points="11.26 51.76 12.51 51.44 12.51 50.56 11.26 50.88 11.26 51.76"/><polygon class="cls-3" points="48.24 49.73 46.99 49.41 46.99 50.28 48.24 50.6 48.24 49.73"/><polygon class="cls-3" points="39.24 47.42 37.99 47.1 37.99 47.97 39.24 48.3 39.24 47.42"/><polygon class="cls-3" points="45.99 49.15 44.74 48.83 44.74 49.71 45.99 50.03 45.99 49.15"/><polygon class="cls-3" points="41.49 47.99 40.24 47.67 40.24 48.55 41.49 48.87 41.49 47.99"/><polygon class="cls-3" points="43.74 48.57 42.49 48.25 42.49 49.13 43.74 49.45 43.74 48.57"/><polygon class="cls-3" points="35.74 47.4 36.99 47.72 36.99 46.84 35.74 46.52 35.74 47.4"/><polygon class="cls-3" points="17.01 49.41 15.76 49.73 15.76 50.6 17.01 50.28 17.01 49.41"/><polygon class="cls-3" points="10.26 51.14 8 51.72 8 52.59 10.26 52.02 10.26 51.14"/><polygon class="cls-3" points="34.74 46.26 32 45.56 29.26 46.26 29.26 47.14 32 46.44 34.74 47.14 34.74 46.26"/><polygon class="cls-3" points="53.74 51.14 53.74 52.02 56 52.59 56 51.72 53.74 51.14"/><polygon class="cls-3" points="28.26 46.52 27.01 46.84 27.01 47.72 28.26 47.4 28.26 46.52"/><polygon class="cls-3" points="26.01 47.1 24.76 47.42 24.76 48.3 26.01 47.97 26.01 47.1"/><polygon class="cls-3" points="19.26 48.83 18.01 49.15 18.01 50.03 19.26 49.71 19.26 48.83"/><polygon class="cls-3" points="21.51 48.25 20.26 48.57 20.26 49.45 21.51 49.13 21.51 48.25"/><polygon class="cls-3" points="23.76 47.67 22.51 47.99 22.51 48.87 23.76 48.55 23.76 47.67"/><polygon class="cls-3" points="52.74 48.94 51.49 48.62 51.49 49.5 52.74 49.82 52.74 48.94"/><polygon class="cls-3" points="50.49 48.37 49.24 48.05 49.24 48.92 50.49 49.24 50.49 48.37"/><polygon class="cls-3" points="14.76 48.05 13.51 48.37 13.51 49.24 14.76 48.92 14.76 48.05"/><polygon class="cls-3" points="11.26 49.82 12.51 49.5 12.51 48.62 11.26 48.94 11.26 49.82"/><polygon class="cls-3" points="48.24 47.79 46.99 47.47 46.99 48.35 48.24 48.67 48.24 47.79"/><polygon class="cls-3" points="39.24 45.48 37.99 45.16 37.99 46.04 39.24 46.36 39.24 45.48"/><polygon class="cls-3" points="45.99 47.21 44.74 46.89 44.74 47.77 45.99 48.09 45.99 47.21"/><polygon class="cls-3" points="41.49 46.06 40.24 45.74 40.24 46.61 41.49 46.94 41.49 46.06"/><polygon class="cls-3" points="43.74 46.63 42.49 46.31 42.49 47.19 43.74 47.51 43.74 46.63"/><polygon class="cls-3" points="35.74 45.46 36.99 45.78 36.99 44.9 35.74 44.58 35.74 45.46"/><polygon class="cls-3" points="17.01 47.47 15.76 47.79 15.76 48.67 17.01 48.35 17.01 47.47"/><polygon class="cls-3" points="10.26 49.2 8 49.78 8 50.66 10.26 50.08 10.26 49.2"/><polygon class="cls-3" points="34.74 44.33 32 43.62 29.26 44.33 29.26 45.2 32 44.5 34.74 45.2 34.74 44.33"/><polygon class="cls-3" points="53.74 49.2 53.74 50.08 56 50.66 56 49.78 53.74 49.2"/><polygon class="cls-3" points="28.26 44.58 27.01 44.9 27.01 45.78 28.26 45.46 28.26 44.58"/><polygon class="cls-3" points="26.01 45.16 24.76 45.48 24.76 46.36 26.01 46.04 26.01 45.16"/><polygon class="cls-3" points="19.26 46.89 18.01 47.21 18.01 48.09 19.26 47.77 19.26 46.89"/><polygon class="cls-3" points="21.51 46.31 20.26 46.63 20.26 47.51 21.51 47.19 21.51 46.31"/><polygon class="cls-3" points="23.76 45.74 22.51 46.06 22.51 46.94 23.76 46.61 23.76 45.74"/><polygon class="cls-3" points="52.74 47.01 51.49 46.69 51.49 47.56 52.74 47.88 52.74 47.01"/><polygon class="cls-3" points="50.49 46.43 49.24 46.11 49.24 46.99 50.49 47.31 50.49 46.43"/><polygon class="cls-3" points="14.76 46.11 13.51 46.43 13.51 47.31 14.76 46.99 14.76 46.11"/><polygon class="cls-3" points="11.26 47.88 12.51 47.56 12.51 46.69 11.26 47.01 11.26 47.88"/><polygon class="cls-3" points="48.24 45.85 46.99 45.53 46.99 46.41 48.24 46.73 48.24 45.85"/><polygon class="cls-3" points="39.24 43.54 37.99 43.22 37.99 44.1 39.24 44.42 39.24 43.54"/><polygon class="cls-3" points="45.99 45.27 44.74 44.95 44.74 45.83 45.99 46.15 45.99 45.27"/><polygon class="cls-3" points="41.49 44.12 40.24 43.8 40.24 44.68 41.49 45 41.49 44.12"/><polygon class="cls-3" points="43.74 44.7 42.49 44.38 42.49 45.25 43.74 45.57 43.74 44.7"/><polygon class="cls-3" points="35.74 43.52 36.99 43.84 36.99 42.97 35.74 42.64 35.74 43.52"/><polygon class="cls-3" points="17.01 45.53 15.76 45.85 15.76 46.73 17.01 46.41 17.01 45.53"/><polygon class="cls-3" points="10.26 47.26 8 47.84 8 48.72 10.26 48.14 10.26 47.26"/><polygon class="cls-3" points="34.74 42.39 32 41.69 29.26 42.39 29.26 43.27 32 42.56 34.74 43.27 34.74 42.39"/><polygon class="cls-3" points="53.74 47.26 53.74 48.14 56 48.72 56 47.84 53.74 47.26"/><polygon class="cls-3" points="28.26 42.64 27.01 42.97 27.01 43.84 28.26 43.52 28.26 42.64"/><polygon class="cls-3" points="26.01 43.22 24.76 43.54 24.76 44.42 26.01 44.1 26.01 43.22"/><polygon class="cls-3" points="19.26 44.95 18.01 45.27 18.01 46.15 19.26 45.83 19.26 44.95"/><polygon class="cls-3" points="21.51 44.38 20.26 44.7 20.26 45.57 21.51 45.25 21.51 44.38"/><polygon class="cls-3" points="23.76 43.8 22.51 44.12 22.51 45 23.76 44.68 23.76 43.8"/><polygon class="cls-3" points="52.74 45.07 51.49 44.75 51.49 45.63 52.74 45.95 52.74 45.07"/><polygon class="cls-3" points="50.49 44.49 49.24 44.17 49.24 45.05 50.49 45.37 50.49 44.49"/><polygon class="cls-3" points="14.76 44.17 13.51 44.49 13.51 45.37 14.76 45.05 14.76 44.17"/><polygon class="cls-3" points="11.26 45.95 12.51 45.63 12.51 44.75 11.26 45.07 11.26 45.95"/><polygon class="cls-3" points="48.24 43.91 46.99 43.59 46.99 44.47 48.24 44.79 48.24 43.91"/><polygon class="cls-3" points="39.24 41.6 37.99 41.28 37.99 42.16 39.24 42.48 39.24 41.6"/><polygon class="cls-3" points="45.99 43.34 44.74 43.02 44.74 43.89 45.99 44.21 45.99 43.34"/><polygon class="cls-3" points="41.49 42.18 40.24 41.86 40.24 42.74 41.49 43.06 41.49 42.18"/><polygon class="cls-3" points="43.74 42.76 42.49 42.44 42.49 43.32 43.74 43.64 43.74 42.76"/><polygon class="cls-3" points="35.74 41.58 36.99 41.91 36.99 41.03 35.74 40.71 35.74 41.58"/><polygon class="cls-3" points="17.01 43.59 15.76 43.91 15.76 44.79 17.01 44.47 17.01 43.59"/><polygon class="cls-3" points="10.26 45.33 8 45.91 8 46.78 10.26 46.2 10.26 45.33"/><polygon class="cls-3" points="34.74 40.45 32 39.75 29.26 40.45 29.26 41.33 32 40.63 34.74 41.33 34.74 40.45"/><polygon class="cls-3" points="53.74 45.33 53.74 46.2 56 46.78 56 45.91 53.74 45.33"/><polygon class="cls-3" points="28.26 40.71 27.01 41.03 27.01 41.91 28.26 41.58 28.26 40.71"/><polygon class="cls-3" points="26.01 41.28 24.76 41.6 24.76 42.48 26.01 42.16 26.01 41.28"/><polygon class="cls-3" points="19.26 43.02 18.01 43.34 18.01 44.21 19.26 43.89 19.26 43.02"/><polygon class="cls-3" points="21.51 42.44 20.26 42.76 20.26 43.64 21.51 43.32 21.51 42.44"/><polygon class="cls-3" points="23.76 41.86 22.51 42.18 22.51 43.06 23.76 42.74 23.76 41.86"/><path class="cls-3" d="M22.6,38.72a6.8,6.8,0,0,0,1.87,3.57l3.19,3.2a3.81,3.81,0,0,0,2.67,1.1h3.34a3.81,3.81,0,0,0,2.67-1.1l3.19-3.2a6.8,6.8,0,0,0,1.87-3.57l-.35-.78-2.43,2.44L32,38.68l-6.62,1.7L23,37.94Z"/><polygon class="cls-3" points="38.62 51.09 32 49.4 25.39 51.09 21.38 52.12 8 55.55 8 56 56 56 56 55.55 42.62 52.12 38.62 51.09"/><path class="cls-4" d="M56,57H8a1,1,0,0,1-1-1V44.84a1,1,0,0,1,.75-1L20,40.72a1.34,1.34,0,0,0,.89-.75L22,37.53a1,1,0,1,1,1.82.83L22.75,40.8a3.34,3.34,0,0,1-2.22,1.86L9,45.62V55H55V45.62l-11.53-3a3.34,3.34,0,0,1-2.22-1.86l-1.11-2.44A1,1,0,1,1,42,37.53L43.07,40a1.34,1.34,0,0,0,.89.75l12.29,3.15a1,1,0,0,1,.75,1V56A1,1,0,0,1,56,57Z"/><path class="cls-5" d="M20.54,23.18l-3.13-3.82L18,27.15a2.83,2.83,0,0,0,.71,1.66l3.52,3.68Z"/><path class="cls-4" d="M22.25,33.49a1,1,0,0,1-.72-.31L18,29.5a3.86,3.86,0,0,1-1-2.27l-.85-11,5.15,6.28a1,1,0,0,1-1.55,1.26l-1.11-1.35L19,27.07a1.84,1.84,0,0,0,.45,1.07L23,31.8a1,1,0,0,1,0,1.41A1,1,0,0,1,22.25,33.49Z"/><path class="cls-5" d="M43.46,23.18l3.13-3.82L46,27.15a2.83,2.83,0,0,1-.71,1.66l-3.52,3.68Z"/><path class="cls-4" d="M41.75,33.49a1,1,0,0,1-.69-.28,1,1,0,0,1,0-1.41l3.52-3.68A1.83,1.83,0,0,0,45,27.07l.36-4.61-1.11,1.35a1,1,0,0,1-1.55-1.26l5.15-6.28-.85,11a3.85,3.85,0,0,1-1,2.25l-3.54,3.7A1,1,0,0,1,41.75,33.49Z"/><path class="cls-6" d="M44,26a4.89,4.89,0,0,0,0-.54c-.2-1.53-.49-3.05-.65-4.58-.94-9-5.65-12.5-11.32-12.5S21.54,11.92,20.66,21.12c-.14,1.39-.35,2.77-.59,4.14A3.84,3.84,0,0,0,20,26a4.69,4.69,0,0,0,.77,2.53,9.12,9.12,0,0,1,1.39,3.68l.34,2.87a6.82,6.82,0,0,0,2,4.06l3.19,3.2a3.81,3.81,0,0,0,2.67,1.1h3.34a3.81,3.81,0,0,0,2.67-1.1l3.19-3.2a6.82,6.82,0,0,0,2-4.06l.34-2.87a9.12,9.12,0,0,1,1.39-3.68A4.69,4.69,0,0,0,44,26Z"/><path class="cls-7" d="M24.11,37.09l-.34-2.88a9,9,0,0,0-1.4-3.67,4.64,4.64,0,0,1-.7-3.29c.25-1.37.46-2.76.6-4.14.88-9.2,5.62-12.72,11.34-12.72a10.23,10.23,0,0,1,7.31,2.75A10,10,0,0,0,32,8.4c-5.72,0-10.46,3.52-11.34,12.72-.14,1.39-.35,2.77-.59,4.14A3.84,3.84,0,0,0,20,26a4.69,4.69,0,0,0,.77,2.53,9.12,9.12,0,0,1,1.39,3.68l.34,2.87a6.82,6.82,0,0,0,2,4.06l.51.51A6.86,6.86,0,0,1,24.11,37.09Z"/><polygon class="cls-8" points="34.15 27.57 33.41 27.07 32.46 27.42 32.01 27.16 31.99 27.16 31.54 27.42 30.59 27.07 29.86 27.57 31.23 29.25 31.97 29.39 31.97 29.4 32 29.39 32.03 29.4 32.03 29.39 32.77 29.25 34.15 27.57"/><path class="cls-5" d="M32.54,40.45l.63-.71H30.83l.63.71a1,1,0,0,1,.07,1.26l-.55.78,1,.27,1-.27-.55-.78A1,1,0,0,1,32.54,40.45Z"/><polygon class="cls-5" points="33.26 37.16 32 37.58 30.74 37.16 29.12 38.14 29.64 38.28 30.74 37.94 32 38.14 33.26 37.94 34.36 38.28 34.88 38.14 33.26 37.16"/><polygon class="cls-5" points="23.31 26.29 24.77 29.45 26.85 30.18 27.87 29.61 28.86 29.34 29.4 27.85 25.12 26.66 23.31 26.29"/><polygon class="cls-5" points="38.88 26.66 34.6 27.85 35.14 29.34 36.13 29.61 37.15 30.18 39.23 29.45 40.69 26.29 38.88 26.66"/><path class="cls-5" d="M33.9,34.88l-1.9.76-1.9-.76-.54.43,1.29,1.21A1.64,1.64,0,0,0,32,37h0a1.64,1.64,0,0,0,1.15-.46l1.29-1.21Z"/><path class="cls-7" d="M30.23,27.5h0a2.7,2.7,0,0,1,1,2.1v5.31l-1-.66-.24.16.24-.79.58.2-1.13-3.08a.7.7,0,0,1,0-.55l.71-1.7Z"/><path class="cls-9" d="M33.77,27.5h0a2.7,2.7,0,0,0-1,2.1v5.31l1-.66.24.16-.24-.79-.58.2,1.13-3.08a.7.7,0,0,0,0-.55l-.71-1.7Z"/><path class="cls-7" d="M32.37,43.05a3.74,3.74,0,0,1-2.66-1.11l-3.2-3.19a7,7,0,0,1-2-4.06l-.34-2.88a8.8,8.8,0,0,0-1.39-3.67,4.45,4.45,0,0,1-.7-3.29c.24-1.37.46-2.76.59-4.14.7-7.27,3.81-11,7.9-12.22-5.07.55-9.13,4.2-9.94,12.63-.14,1.39-.35,2.77-.59,4.14A3.84,3.84,0,0,0,20,26a4.69,4.69,0,0,0,.77,2.53,9.12,9.12,0,0,1,1.39,3.68l.34,2.87a6.82,6.82,0,0,0,2,4.06l3.19,3.2a3.81,3.81,0,0,0,2.67,1.1h3.34a3.75,3.75,0,0,0,1.68-.41Z"/><path class="cls-9" d="M31.63,43.05a3.74,3.74,0,0,0,2.66-1.11l3.2-3.19a7,7,0,0,0,2-4.06l.34-2.88a8.8,8.8,0,0,1,1.39-3.67,4.45,4.45,0,0,0,.7-3.29c-.24-1.37-.46-2.76-.59-4.14-.7-7.27-3.81-11-7.9-12.22,5.07.55,9.13,4.2,9.94,12.63.14,1.39.35,2.77.59,4.14A3.84,3.84,0,0,1,44,26a4.69,4.69,0,0,1-.77,2.53,9.12,9.12,0,0,0-1.39,3.68L41.5,35.1a6.82,6.82,0,0,1-2,4.06l-3.19,3.2a3.81,3.81,0,0,1-2.67,1.1H30.33a3.75,3.75,0,0,1-1.68-.41Z"/><path class="cls-4" d="M33.67,44.46H30.33A4.73,4.73,0,0,1,27,43.06l-3.2-3.19a7.87,7.87,0,0,1-2.25-4.65l-.34-2.88a8,8,0,0,0-1.25-3.26,5.53,5.53,0,0,1-.84-4c.29-1.63.47-2.89.58-4.07C20.8,9.17,27.88,7.4,32,7.4S43.1,9.14,44.31,20.79c.09.86.22,1.7.36,2.55.1.67.2,1.34.29,2A4.87,4.87,0,0,1,45,26a5.69,5.69,0,0,1-.92,3.06,8,8,0,0,0-1.25,3.26l-.34,2.88a7.87,7.87,0,0,1-2.25,4.65L37,43.06A4.73,4.73,0,0,1,33.67,44.46ZM32,9.4c-6,0-9.6,4.09-10.35,11.81-.12,1.24-.3,2.54-.6,4.23A3.54,3.54,0,0,0,21.61,28a9.7,9.7,0,0,1,1.54,4.09L23.49,35a5.94,5.94,0,0,0,1.69,3.47l3.19,3.2a2.76,2.76,0,0,0,2,.81h3.34a2.76,2.76,0,0,0,2-.81l3.19-3.2A5.94,5.94,0,0,0,40.51,35l.34-2.87A9.7,9.7,0,0,1,42.39,28,3.79,3.79,0,0,0,43,26a2.73,2.73,0,0,0,0-.41c-.08-.66-.18-1.31-.28-2-.13-.86-.27-1.75-.37-2.65C41.54,13.42,38,9.4,32,9.4Z"/><path class="cls-4" d="M29.67,35.22l.19-.29a.36.36,0,0,1,.41-.14l.65.3c.19.08.45.21.59.25s.06,0,.15,0l.34-.06v1l-.34-.07a1.07,1.07,0,0,1-.5-.17c-.25-.21-.35-.34-.53-.51L30.16,35C30.07,34.89,29.85,35.1,29.67,35.22Z"/><path class="cls-4" d="M34.33,35.22c-.18-.12-.4-.33-.49-.2l-.47.48c-.18.17-.28.3-.53.51a1.07,1.07,0,0,1-.5.17l-.34.07v-1l.34.06c.09,0,.09,0,.15,0s.4-.17.59-.25l.65-.3a.36.36,0,0,1,.41.14Z"/><path class="cls-4" d="M22.05,28.77l1.75,4a1.26,1.26,0,0,0,.51.61,2.06,2.06,0,0,1,.9.9,2.93,2.93,0,0,1,.21,1.15l.08,1.1-.32-1a2.62,2.62,0,0,0-.4-.94,1.35,1.35,0,0,0-.75-.46,2.09,2.09,0,0,1-1.09-.81l-2.62-3.54a1,1,0,1,1,1.61-1.2A.82.82,0,0,1,22.05,28.77Z"/><path class="cls-4" d="M43.68,29.76l-2.62,3.53A2,2,0,0,1,40,34.1a1.36,1.36,0,0,0-.75.47,2.62,2.62,0,0,0-.4.94l-.32,1.05.08-1.1a2.87,2.87,0,0,1,.21-1.15,2,2,0,0,1,.9-.9,1.24,1.24,0,0,0,.51-.62l1.75-4a1,1,0,0,1,1.85.8A.82.82,0,0,1,43.68,29.76Z"/><path class="cls-4" d="M28.67,38l1,.11H29.6l.94-.39h.14l1.42.06a.51.51,0,0,1,0,1,.41.41,0,0,1-.16,0l-1.34-.51h.14l-1,.18H29.6Z"/><path class="cls-4" d="M35.33,38l-.93.43h-.09l-1-.18h.14l-1.34.51a.5.5,0,0,1-.65-.29.51.51,0,0,1,.29-.66.45.45,0,0,1,.16,0l1.42-.06h.14l.94.39h-.09Z"/><path class="cls-4" d="M30.47,39.74a4.81,4.81,0,0,1,3.06,0,4.81,4.81,0,0,1-3.06,0Z"/><path class="cls-4" d="M23.73,26.36l1,.7a3.49,3.49,0,0,1,1,1.07l.39.65,2.23.28.61.28,1.63-2-.89.23Z"/><path class="cls-10" d="M28.41,27.65a.73.73,0,0,1-.73.74.74.74,0,1,1,0-1.47A.73.73,0,0,1,28.41,27.65Z"/><path class="cls-11" d="M28.09,27.65a.41.41,0,0,1-.82,0,.41.41,0,0,1,.82,0Z"/><path class="cls-12" d="M27.45,27.5a.24.24,0,1,1-.48,0,.24.24,0,0,1,.48,0Z"/><path class="cls-4" d="M23,24.52a8.25,8.25,0,0,1,.8,1.05.62.62,0,0,1-.08.53l-.1.16s-.05.1,0,0a.3.3,0,0,0-.08-.29l-.05,0h.13l.31,0c.83.1,1.65.25,2.47.41s1.63.37,2.43.61l.6.18a.87.87,0,0,0,.46.08,2.35,2.35,0,0,0,.54-.19c.19-.08.39-.16.6-.23-.14.17-.29.32-.44.47a2.28,2.28,0,0,1-.54.44,1.3,1.3,0,0,1-.77.1l-.63-.07c-.83-.1-1.65-.25-2.47-.42s-1.63-.37-2.43-.61l-.3-.09-.17-.06a.49.49,0,0,1-.19-.11.41.41,0,0,1-.12-.42.61.61,0,0,1,.17-.24l.1-.09c.05-.05.06-.05.07-.05A12,12,0,0,1,23,24.52Z"/><path class="cls-4" d="M25.35,28.7a9.65,9.65,0,0,1,2.34,0,2.4,2.4,0,0,1,1.17.37,2,2,0,0,1,.78.93,3.61,3.61,0,0,0-1-.59,3.22,3.22,0,0,0-1.05-.21A10.21,10.21,0,0,1,25.35,28.7Z"/><path class="cls-6" d="M23.21,25l-.9-1.33a4.82,4.82,0,0,1-.8-2.65V20l.73,1.08a5.74,5.74,0,0,0,1.14,1.22l2.51,2"/><path class="cls-7" d="M22.83,22v-.14a5.53,5.53,0,0,1-.58-.7L21.52,20v1a4.82,4.82,0,0,0,.8,2.65l.9,1.33C22.69,24.26,22.82,22.89,22.83,22Z"/><path class="cls-4" d="M23.21,25c-.33-.32-.64-.66-.95-1a4.5,4.5,0,0,1-1.19-2.62A13.47,13.47,0,0,1,21,20L21,18.45l.95,1.3c.3.41.58.88.84,1.26a5.92,5.92,0,0,0,.95,1.06,24,24,0,0,1,2.18,2.21,21.61,21.61,0,0,1-2.68-1.57A5.63,5.63,0,0,1,22,21.59c-.32-.46-.61-.85-.89-1.29L22,20l0,1.33a5.22,5.22,0,0,0,.18,1.23,5.44,5.44,0,0,0,.49,1.19C22.85,24.19,23.05,24.61,23.21,25Z"/><path class="cls-6" d="M26.58,26.11,26,24.62a4.58,4.58,0,0,1-.23-2.76l.22-1,.49,1.22a5.44,5.44,0,0,0,.86,1.42l2,2.44"/><path class="cls-7" d="M23.71,24.3l.66,1.09s4,.51,5.27,1.53l.95-.4-.65-.16s-1-1-4-1.25Z"/><path class="cls-7" d="M26.84,23l0-.14a5,5,0,0,1-.41-.8L26,20.85l-.22,1A4.58,4.58,0,0,0,26,24.62l.6,1.49C26.22,25.24,26.64,23.93,26.84,23Z"/><path class="cls-4" d="M26.58,26.11c-.27-.38-.5-.78-.73-1.18a4.21,4.21,0,0,1-.53-1.33,4.32,4.32,0,0,1-.09-1.48c.06-.52.17-.91.26-1.37l.28-1.55.66,1.47c.2.46.38,1,.56,1.41a5.57,5.57,0,0,0,.7,1.23,20.8,20.8,0,0,1,1.67,2.62,21.76,21.76,0,0,1-2.29-2.1,5.24,5.24,0,0,1-1-1.35c-.22-.51-.42-.95-.6-1.44l.94-.08-.31,1.29a5.14,5.14,0,0,0-.08,1.24,5.29,5.29,0,0,0,.22,1.27C26.39,25.21,26.5,25.65,26.58,26.11Z"/><path class="cls-6" d="M27.28,10.91l.11-.93a2.72,2.72,0,0,1,.67-1.47l.39-.45-.09.76a3.16,3.16,0,0,0,0,1l.35,1.82"/><path class="cls-7" d="M28.29,9.4l.05-.06a4.52,4.52,0,0,1,0-.52l.09-.76-.39.45A2.72,2.72,0,0,0,27.39,10l-.11.93C27.34,10.37,27.93,9.82,28.29,9.4Z"/><path class="cls-4" d="M27.28,10.91a4.55,4.55,0,0,1-.13-.81,2.4,2.4,0,0,1,.05-.88,2.63,2.63,0,0,1,.37-.84,7.79,7.79,0,0,1,.51-.65l1-1.2-.1,1.59c0,.29-.08.61-.11.87a3.33,3.33,0,0,0,0,.78,7.61,7.61,0,0,1-.06,1.84A8.07,8.07,0,0,1,28,9.92a3,3,0,0,1-.14-1c0-.34,0-.6.09-.91l.86.39-.52.55a3.59,3.59,0,0,0-.4.54,4.64,4.64,0,0,0-.3.67A5.57,5.57,0,0,1,27.28,10.91Z"/><path class="cls-6" d="M25.43,12.56l.18-1.43a4.2,4.2,0,0,1,1-2.25l.61-.69-.14,1.16a4.66,4.66,0,0,0,0,1.49l.52,2.8"/><path class="cls-7" d="M27,10.25l.08-.09a4.39,4.39,0,0,1,0-.81l.14-1.16-.61.69a4.2,4.2,0,0,0-1,2.25l-.18,1.43C25.53,11.72,26.43,10.88,27,10.25Z"/><path class="cls-4" d="M25.43,12.56c-.05-.42-.07-.83-.08-1.24A4.11,4.11,0,0,1,25.51,10a4,4,0,0,1,.58-1.21c.27-.38.53-.64.8-1l1-1.21-.15,1.6c0,.45-.13.93-.18,1.35a5.23,5.23,0,0,0,0,1.25,17.23,17.23,0,0,1,.11,2.79,18.69,18.69,0,0,1-.9-2.64,4.55,4.55,0,0,1-.16-1.48c.05-.5.08-.93.15-1.39l.86.39-.81.87a4.78,4.78,0,0,0-.6.91,4.93,4.93,0,0,0-.4,1.08C25.7,11.77,25.58,12.17,25.43,12.56Z"/><path class="cls-6" d="M23.92,14.48V12.87a4.72,4.72,0,0,1,.83-2.64l.58-.84v1.3a5.42,5.42,0,0,0,.26,1.65l1,3"/><path class="cls-7" d="M25.33,11.71l.08-.11a5.5,5.5,0,0,1-.08-.91V9.39l-.58.84a4.72,4.72,0,0,0-.83,2.64v1.61C23.92,13.54,24.8,12.49,25.33,11.71Z"/><path class="cls-4" d="M23.92,14.48c-.1-.45-.17-.9-.23-1.36a4.64,4.64,0,0,1,0-1.44,4.41,4.41,0,0,1,.49-1.4,13.28,13.28,0,0,1,.75-1.18l.84-1.32.06,1.61c0,.5,0,1,0,1.52a5.66,5.66,0,0,0,.18,1.4,20.63,20.63,0,0,1,.56,3.06,24,24,0,0,1-1.33-2.81A5.18,5.18,0,0,1,24.86,11c0-.56,0-1,0-1.57l.9.29L25,10.75a5,5,0,0,0-.55,1.11,6.11,6.11,0,0,0-.27,1.26C24.09,13.58,24,14,23.92,14.48Z"/><path class="cls-6" d="M21.65,17.35l-.2-2.64a7.74,7.74,0,0,1,1-4.44l.86-1.47L23.49,11a8.75,8.75,0,0,0,.63,2.67l2,4.85"/><path class="cls-7" d="M23.62,12.62l.11-.2A9,9,0,0,1,23.49,11L23.33,8.8l-.86,1.47a7.74,7.74,0,0,0-1,4.44l.2,2.64C21.53,15.8,22.84,14,23.62,12.62Z"/><path class="cls-4" d="M20.65,17.43l0-2.25a9.54,9.54,0,0,1,.18-2.42,8,8,0,0,1,.86-2.29c.41-.73.82-1.28,1.23-1.93l.94-1.49.05,1.71.06,2.52a8.31,8.31,0,0,0,.51,2.39l1.67,4.8-2.16-4.6a9.2,9.2,0,0,1-.81-2.49L22.8,8.84l1,.23c-.33.65-.73,1.36-1,2a6.82,6.82,0,0,0-.51,2,7.84,7.84,0,0,0,.07,2l.28,2.23a1,1,0,1,1-2,.25A.34.34,0,0,1,20.65,17.43Z"/><path class="cls-7" d="M28,37.94h0l.7,0-.69,0c-.38-.37-.89-.64-1.09-1.1a5,5,0,0,1-.1-1.56,2.68,2.68,0,0,0-.38-1.6,4.85,4.85,0,0,0-1.21-1.1,7,7,0,0,1,1.06,1.19,2.58,2.58,0,0,1,.28,1.51c0,.27,0,.54,0,.81a1.65,1.65,0,0,0,.15.84,1.45,1.45,0,0,0,.57.63l.67.46Z"/><path class="cls-7" d="M25.87,32.19c.29.19.62.34.87.53a1.9,1.9,0,0,1,.57.77,4.47,4.47,0,0,1,.33.95,6.61,6.61,0,0,1,0,1,2.16,2.16,0,0,0,.14,1c.21.3.43.54.65.81l0,0h0l1.14.3-1.09-.4c-.19-.27-.41-.55-.58-.81a2.55,2.55,0,0,1-.07-1,7.41,7.41,0,0,0,0-1.05,3.69,3.69,0,0,0-.34-1,2,2,0,0,0-.65-.86A9.23,9.23,0,0,0,26,32a2.21,2.21,0,0,1-1.11-1.57l.36-.46-.41.44h0A2.24,2.24,0,0,0,25.87,32.19Z"/><path class="cls-7" d="M28.83,35.18c-.06-.47,0-1,0-1.49a2.18,2.18,0,0,0-.67-1.38,3.31,3.31,0,0,0-1.36-.66,4,4,0,0,1,1.23.78,2.16,2.16,0,0,1,.56,1.28,12.74,12.74,0,0,0,.05,1.5,3,3,0,0,0,.61,1.4h0l.84.27-.77-.38A3.28,3.28,0,0,1,28.83,35.18Z"/><path class="cls-7" d="M28.11,19.94a6.4,6.4,0,0,0,1.16,1.76c.42.55.88,1.09,1.26,1.64a3.21,3.21,0,0,1,.38,1l.28,1-.22-1a3.27,3.27,0,0,0-.33-1c-.39-.59-.83-1.12-1.24-1.68a6.09,6.09,0,0,1-1.09-1.72,8.6,8.6,0,0,1-.1-2c0-.69,0-1.41,0-2.07a2.55,2.55,0,0,1,1-1.7,3,3,0,0,0,1.31-1.61,7.33,7.33,0,0,0,.08-2.09,7.33,7.33,0,0,1-.19,2.05,2.82,2.82,0,0,1-1.31,1.52A2.8,2.8,0,0,0,28,15.74c-.06.72,0,1.4-.05,2.1v1A3.23,3.23,0,0,0,28.11,19.94Z"/><path class="cls-7" d="M30.74,14.48a2.72,2.72,0,0,0-1.43,1.83,6,6,0,0,0-.06,1.19v1.17a2.68,2.68,0,0,0,.34,1.17,6.91,6.91,0,0,0,.71.95c.25.3.51.6.74.91a5.94,5.94,0,0,1,.52,1,5.75,5.75,0,0,0-.42-1.11c-.22-.34-.46-.63-.69-1a9.43,9.43,0,0,1-.66-.94,2.38,2.38,0,0,1-.29-1.07c0-.76-.06-1.58,0-2.32A2.83,2.83,0,0,1,30.74,14.48Z"/><path class="cls-7" d="M28.67,23.25c.37.49.64,1.08,1,1.61a10.36,10.36,0,0,0-.81-1.72L27.72,21.6A3.33,3.33,0,0,1,26.89,20c-.07-.6-.06-1.25-.12-1.88A15.11,15.11,0,0,0,26.7,20a3.33,3.33,0,0,0,.82,1.73Z"/><path class="cls-7" d="M30.74,40.09a7.23,7.23,0,0,0-1-.68l-.06,0-.07.05a8.57,8.57,0,0,0-1.4,1.15,8,8,0,0,0,1.48-.93A6.49,6.49,0,0,0,30.74,40.09Z"/><path class="cls-7" d="M29.5,39.06a1.32,1.32,0,0,0-.37-.34l-.06,0-.06,0a8.57,8.57,0,0,0-1.4,1.15A8.46,8.46,0,0,0,29.1,39,1.56,1.56,0,0,0,29.5,39.06Z"/><path class="cls-7" d="M29.86,40.32l-.07,0-.05.05a7,7,0,0,0-.89.84,10.67,10.67,0,0,0,1-.62c.36.19.74.37,1.12.53l.06,0,0,0a8,8,0,0,0,.51-.64,5.4,5.4,0,0,0-.58.47A11.7,11.7,0,0,0,29.86,40.32Z"/><path class="cls-4" d="M40.27,26.36l-1,.7a3.49,3.49,0,0,0-1,1.07l-.39.65-2.23.28-.61.28-1.63-2,.89.23Z"/><path class="cls-10" d="M35.59,27.65a.73.73,0,0,0,.73.74.74.74,0,1,0,0-1.47A.73.73,0,0,0,35.59,27.65Z"/><path class="cls-11" d="M35.91,27.65a.41.41,0,1,0,.82,0,.41.41,0,1,0-.82,0Z"/><path class="cls-12" d="M36.55,27.5a.24.24,0,0,0,.48,0,.24.24,0,0,0-.48,0Z"/><path class="cls-4" d="M41,24.52a12,12,0,0,1-.31,1.19s0,0,.07.05l.1.09a.61.61,0,0,1,.17.24.41.41,0,0,1-.12.42.49.49,0,0,1-.19.11l-.17.06-.3.09c-.8.24-1.62.43-2.43.61s-1.64.32-2.47.42l-.63.07a1.3,1.3,0,0,1-.77-.1,2.28,2.28,0,0,1-.54-.44c-.15-.15-.3-.3-.44-.47.21.07.41.15.6.23a2.35,2.35,0,0,0,.54.19.87.87,0,0,0,.46-.08l.6-.18c.8-.24,1.61-.44,2.43-.61s1.64-.31,2.47-.41l.31,0h.13l0,0a.3.3,0,0,0-.08.29c0,.08,0,0,0,0l-.1-.16a.62.62,0,0,1-.08-.53A8.25,8.25,0,0,1,41,24.52Z"/><path class="cls-4" d="M38.65,28.7a10.21,10.21,0,0,1-2.28.49,3.22,3.22,0,0,0-1,.21,3.61,3.61,0,0,0-1,.59,2,2,0,0,1,.78-.93,2.4,2.4,0,0,1,1.17-.37A9.65,9.65,0,0,1,38.65,28.7Z"/><path class="cls-6" d="M40.79,25l.9-1.33a4.82,4.82,0,0,0,.8-2.65V20l-.73,1.08a5.74,5.74,0,0,1-1.14,1.22l-2.51,2"/><path class="cls-9" d="M41.17,22v-.14a5.53,5.53,0,0,0,.58-.7L42.48,20v1a4.82,4.82,0,0,1-.8,2.65L40.79,25C41.31,24.26,41.18,22.89,41.17,22Z"/><path class="cls-4" d="M40.79,25c.16-.43.36-.85.56-1.26a5.44,5.44,0,0,0,.49-1.19A5.22,5.22,0,0,0,42,21.36L42,20l.9.27c-.28.44-.57.83-.89,1.29a5.63,5.63,0,0,1-1.22,1.12,21.61,21.61,0,0,1-2.68,1.57,24,24,0,0,1,2.18-2.21A5.92,5.92,0,0,0,41.23,21c.26-.38.54-.85.84-1.26l1-1.3L43,20a13.47,13.47,0,0,1,0,1.4A4.5,4.5,0,0,1,41.74,24C41.43,24.38,41.12,24.72,40.79,25Z"/><path class="cls-6" d="M37.42,26.11l.6-1.49a4.58,4.58,0,0,0,.23-2.76l-.22-1-.49,1.22a5.44,5.44,0,0,1-.86,1.42l-2,2.44"/><path class="cls-7" d="M40.29,24.3l-.66,1.09s-4,.51-5.27,1.53l-1-.4.65-.16s1-1,4-1.25Z"/><path class="cls-9" d="M37.16,23l0-.14a5,5,0,0,0,.41-.8L38,20.85l.22,1A4.58,4.58,0,0,1,38,24.62l-.6,1.49C37.78,25.24,37.36,23.93,37.16,23Z"/><path class="cls-4" d="M37.42,26.11c.08-.46.19-.9.3-1.35a5.29,5.29,0,0,0,.22-1.27,5.14,5.14,0,0,0-.08-1.24L37.55,21l.94.08c-.18.49-.38.93-.6,1.44a5.24,5.24,0,0,1-1,1.35,21.76,21.76,0,0,1-2.29,2.1,20.8,20.8,0,0,1,1.67-2.62,5.57,5.57,0,0,0,.7-1.23c.18-.44.36-.95.56-1.41l.66-1.47.28,1.55c.09.46.2.85.26,1.37a4.32,4.32,0,0,1-.09,1.48,4.21,4.21,0,0,1-.53,1.33C37.92,25.33,37.69,25.73,37.42,26.11Z"/><path class="cls-6" d="M36.72,10.91,36.61,10a2.72,2.72,0,0,0-.67-1.47l-.39-.45.09.76a3.16,3.16,0,0,1,0,1l-.35,1.82"/><path class="cls-9" d="M35.71,9.4l-.05-.06a4.52,4.52,0,0,0,0-.52l-.09-.76.39.45A2.72,2.72,0,0,1,36.61,10l.11.93C36.66,10.37,36.07,9.82,35.71,9.4Z"/><path class="cls-4" d="M36.72,10.91a5.57,5.57,0,0,1-.32-.76,4.64,4.64,0,0,0-.3-.67,3.59,3.59,0,0,0-.4-.54l-.52-.55L36,8c.05.31.06.57.09.91a3,3,0,0,1-.14,1,8.07,8.07,0,0,1-.73,1.69,7.61,7.61,0,0,1-.06-1.84,3.33,3.33,0,0,0,0-.78c0-.26-.1-.58-.11-.87L35,6.53l1,1.2a7.79,7.79,0,0,1,.51.65,2.63,2.63,0,0,1,.37.84,2.4,2.4,0,0,1,.05.88A4.55,4.55,0,0,1,36.72,10.91Z"/><path class="cls-6" d="M38.57,12.56l-.18-1.43a4.2,4.2,0,0,0-1-2.25l-.61-.69.14,1.16a4.66,4.66,0,0,1,0,1.49l-.52,2.8"/><path class="cls-9" d="M37,10.25l-.08-.09a4.39,4.39,0,0,0,0-.81l-.14-1.16.61.69a4.2,4.2,0,0,1,1,2.25l.18,1.43C38.47,11.72,37.57,10.88,37,10.25Z"/><path class="cls-4" d="M38.57,12.56c-.15-.39-.27-.79-.38-1.18a4.93,4.93,0,0,0-.4-1.08,4.78,4.78,0,0,0-.6-.91l-.81-.87.86-.39c.07.46.1.89.15,1.39A4.55,4.55,0,0,1,37.23,11a18.69,18.69,0,0,1-.9,2.64,17.23,17.23,0,0,1,.11-2.79,5.23,5.23,0,0,0,0-1.25c0-.42-.15-.9-.18-1.35l-.15-1.6,1,1.21c.27.32.53.58.8,1A4,4,0,0,1,38.49,10a4.11,4.11,0,0,1,.16,1.29C38.64,11.73,38.62,12.14,38.57,12.56Z"/><path class="cls-6" d="M40.08,14.48V12.87a4.72,4.72,0,0,0-.83-2.64l-.58-.84v1.3a5.42,5.42,0,0,1-.26,1.65l-1,3"/><path class="cls-9" d="M38.67,11.71l-.08-.11a5.5,5.5,0,0,0,.08-.91V9.39l.58.84a4.72,4.72,0,0,1,.83,2.64v1.61C40.08,13.54,39.2,12.49,38.67,11.71Z"/><path class="cls-4" d="M40.08,14.48c-.1-.45-.17-.9-.23-1.36a6.11,6.11,0,0,0-.27-1.26A5,5,0,0,0,39,10.75l-.77-1.08.9-.29c0,.53,0,1,0,1.57a5.18,5.18,0,0,1-.37,1.61,24,24,0,0,1-1.33,2.81A20.63,20.63,0,0,1,38,12.31a5.66,5.66,0,0,0,.18-1.4c0-.48,0-1,0-1.52l.06-1.61.84,1.32a13.28,13.28,0,0,1,.75,1.18,4.41,4.41,0,0,1,.49,1.4,4.64,4.64,0,0,1,0,1.44C40.25,13.58,40.18,14,40.08,14.48Z"/><path class="cls-6" d="M42.35,17.35l.2-2.64a7.74,7.74,0,0,0-1-4.44L40.67,8.8,40.51,11a8.75,8.75,0,0,1-.63,2.67l-2,4.85"/><path class="cls-9" d="M40.38,12.62l-.11-.2A9,9,0,0,0,40.51,11l.16-2.15.86,1.47a7.74,7.74,0,0,1,1,4.44l-.2,2.64C42.47,15.8,41.16,14,40.38,12.62Z"/><path class="cls-4" d="M41.36,17.28l.28-2.23a7.84,7.84,0,0,0,.07-2,6.82,6.82,0,0,0-.51-2c-.26-.61-.66-1.32-1-2l1-.23-.33,2.54a9.2,9.2,0,0,1-.81,2.49l-2.16,4.6,1.67-4.8a8.31,8.31,0,0,0,.51-2.39l.06-2.52,0-1.71.94,1.49c.41.65.82,1.2,1.23,1.93a8,8,0,0,1,.86,2.29,9.54,9.54,0,0,1,.18,2.42l0,2.25a1,1,0,1,1-2-.05A.34.34,0,0,1,41.36,17.28Z"/><path class="cls-9" d="M36,37.94h0l-.7,0,.69,0c.38-.37.89-.64,1.09-1.1a5,5,0,0,0,.1-1.56,2.68,2.68,0,0,1,.38-1.6,4.85,4.85,0,0,1,1.21-1.1,7,7,0,0,0-1.06,1.19,2.58,2.58,0,0,0-.28,1.51c0,.27,0,.54,0,.81a1.65,1.65,0,0,1-.15.84,1.45,1.45,0,0,1-.57.63l-.67.46Z"/><path class="cls-9" d="M38.13,32.19c-.29.19-.62.34-.87.53a1.9,1.9,0,0,0-.57.77,4.47,4.47,0,0,0-.33.95,6.61,6.61,0,0,0,0,1,2.16,2.16,0,0,1-.14,1c-.21.3-.43.54-.65.81l0,0h0l-1.14.3,1.09-.4c.19-.27.41-.55.58-.81a2.55,2.55,0,0,0,.07-1,7.41,7.41,0,0,1,0-1.05,3.69,3.69,0,0,1,.34-1,2,2,0,0,1,.65-.86A9.23,9.23,0,0,1,38,32a2.21,2.21,0,0,0,1.11-1.57L38.78,30l.41.44h0A2.24,2.24,0,0,1,38.13,32.19Z"/><path class="cls-9" d="M35.17,35.18c.06-.47,0-1,0-1.49a2.18,2.18,0,0,1,.67-1.38,3.31,3.31,0,0,1,1.36-.66,4,4,0,0,0-1.23.78,2.16,2.16,0,0,0-.56,1.28,12.74,12.74,0,0,1,0,1.5,3,3,0,0,1-.61,1.4h0l-.84.27.77-.38A3.28,3.28,0,0,0,35.17,35.18Z"/><path class="cls-9" d="M35.89,19.94a6.4,6.4,0,0,1-1.16,1.76c-.42.55-.88,1.09-1.26,1.64a3.21,3.21,0,0,0-.38,1l-.28,1,.22-1a3.27,3.27,0,0,1,.33-1c.39-.59.83-1.12,1.24-1.68a6.09,6.09,0,0,0,1.09-1.72,8.6,8.6,0,0,0,.1-2c0-.69,0-1.41,0-2.07a2.55,2.55,0,0,0-1-1.7,3,3,0,0,1-1.31-1.61,7.33,7.33,0,0,1-.08-2.09,7.33,7.33,0,0,0,.19,2.05,2.82,2.82,0,0,0,1.31,1.52A2.8,2.8,0,0,1,36,15.74c.06.72,0,1.4,0,2.1v1A3.23,3.23,0,0,1,35.89,19.94Z"/><path class="cls-9" d="M33.26,14.48a2.72,2.72,0,0,1,1.43,1.83,6,6,0,0,1,.06,1.19v1.17a2.68,2.68,0,0,1-.34,1.17,6.91,6.91,0,0,1-.71.95c-.25.3-.51.6-.74.91a5.94,5.94,0,0,0-.52,1,5.75,5.75,0,0,1,.42-1.11c.22-.34.46-.63.69-1a9.43,9.43,0,0,0,.66-.94,2.38,2.38,0,0,0,.29-1.07c0-.76.06-1.58,0-2.32A2.83,2.83,0,0,0,33.26,14.48Z"/><path class="cls-9" d="M35.33,23.25c-.37.49-.64,1.08-1,1.61a10.36,10.36,0,0,1,.81-1.72l1.11-1.54A3.33,3.33,0,0,0,37.11,20c.07-.6.06-1.25.12-1.88A15.11,15.11,0,0,1,37.3,20a3.33,3.33,0,0,1-.82,1.73Z"/><path class="cls-9" d="M33.26,40.09a7.23,7.23,0,0,1,1-.68l.06,0,.07.05a8.57,8.57,0,0,1,1.4,1.15,8,8,0,0,1-1.48-.93A6.49,6.49,0,0,1,33.26,40.09Z"/><path class="cls-9" d="M34.5,39.06a1.32,1.32,0,0,1,.37-.34l.06,0,.06,0a8.57,8.57,0,0,1,1.4,1.15A8.46,8.46,0,0,1,34.9,39,1.56,1.56,0,0,1,34.5,39.06Z"/><path class="cls-9" d="M34.14,40.32l.07,0,0,.05a7,7,0,0,1,.89.84,10.67,10.67,0,0,1-1-.62c-.36.19-.74.37-1.12.53l-.06,0,0,0a8,8,0,0,1-.51-.64,5.4,5.4,0,0,1,.58.47A11.7,11.7,0,0,1,34.14,40.32Z"/><path class="cls-7" d="M32,11.28c.07,1.46.08,2.92.1,4.37v.06l0,0-1,.72,0-.17c.67.73,1.31,1.51,2,2.26l.07.08-.09.06-1,.65,0-.06c0,3.35,0,6.69-.08,10,0-3.35-.07-6.69-.08-10v0l0,0,1-.68,0,.13c-.67-.74-1.36-1.47-2-2.23l-.09-.1.11-.07,1-.7,0,.08C31.92,14.2,31.93,12.74,32,11.28Z"/><path class="cls-1" d="M35.39,50.36A3.39,3.39,0,1,1,32,47,3.4,3.4,0,0,1,35.39,50.36Z"/><path class="cls-3" d="M32,47a3.4,3.4,0,1,1-3.39,3.39A3.39,3.39,0,0,1,32,47m0-1a4.4,4.4,0,1,0,4.39,4.39A4.4,4.4,0,0,0,32,46Z"/></svg>